<svg width="169.142" height="73.048" viewBox="0 0 169.142 73.048" xmlns="http://www.w3.org/2000/svg">
    <g id="svgGroup" font-size="9pt" stroke-width="0.25mm"  style="stroke-width:0.25mm;">
<path d="M 109.473 21.241 L 103.418 21.241 A 17.229 17.229 0 0 0 102.596 15.801 A 14.217 14.217 0 0 0 98.438 9.547 A 16.896 16.896 0 0 0 91.102 5.803 Q 88.341 5.128 85.059 5.128 A 29.73 29.73 0 0 0 79.845 5.558 Q 75.243 6.378 72.07 8.765 Q 67.247 12.395 67.236 18.236 A 14.126 14.126 0 0 0 67.236 18.262 A 10.615 10.615 0 0 0 70.683 26.329 A 13.486 13.486 0 0 0 71.582 27.1 A 21.477 21.477 0 0 0 74.808 29.158 Q 78.34 31.029 83.696 32.618 A 85.125 85.125 0 0 0 85.498 33.131 A 113.005 113.005 0 0 1 90.899 34.741 Q 96.571 36.598 100 38.551 Q 104.932 41.358 107.422 45.264 A 15.789 15.789 0 0 1 109.715 51.611 A 20.453 20.453 0 0 1 109.912 54.493 Q 109.912 62.613 103.637 67.629 A 20.749 20.749 0 0 1 103.198 67.969 Q 96.484 73.048 85.498 73.048 A 36.673 36.673 0 0 1 76.375 71.945 A 32.039 32.039 0 0 1 71.704 70.362 A 24.627 24.627 0 0 1 66.639 67.487 A 19.001 19.001 0 0 1 62.183 62.843 Q 58.936 58.009 58.936 51.759 L 64.941 51.759 A 16.153 16.153 0 0 0 65.859 57.32 A 13.888 13.888 0 0 0 70.557 63.624 Q 75.596 67.524 83.624 67.924 A 37.665 37.665 0 0 0 85.498 67.969 A 30.614 30.614 0 0 0 90.986 67.507 Q 95.587 66.668 98.828 64.307 Q 103.857 60.645 103.857 54.591 A 13.544 13.544 0 0 0 103.224 50.351 A 10.983 10.983 0 0 0 99.707 45.24 A 18.413 18.413 0 0 0 96.828 43.331 Q 93.649 41.583 88.593 39.929 A 100.85 100.85 0 0 0 84.521 38.697 A 98.71 98.71 0 0 1 78.785 36.909 Q 72.058 34.566 68.408 31.934 A 18.436 18.436 0 0 1 63.9 27.449 A 15.61 15.61 0 0 1 61.182 18.36 A 15.659 15.659 0 0 1 66.322 6.427 A 20.331 20.331 0 0 1 67.896 5.103 Q 74.609 0.001 85.059 0.001 A 31.489 31.489 0 0 1 92.161 0.772 A 25.889 25.889 0 0 1 97.729 2.735 A 21.81 21.81 0 0 1 103.673 6.929 A 19.816 19.816 0 0 1 106.396 10.352 A 20.008 20.008 0 0 1 109.473 21.241 Z M 168.701 21.241 L 162.646 21.241 A 17.229 17.229 0 0 0 161.825 15.801 A 14.217 14.217 0 0 0 157.666 9.547 A 16.896 16.896 0 0 0 150.33 5.803 Q 147.57 5.128 144.287 5.128 A 29.73 29.73 0 0 0 139.073 5.558 Q 134.471 6.378 131.299 8.765 Q 126.476 12.395 126.465 18.236 A 14.126 14.126 0 0 0 126.465 18.262 A 10.615 10.615 0 0 0 129.912 26.329 A 13.486 13.486 0 0 0 130.811 27.1 A 21.477 21.477 0 0 0 134.037 29.158 Q 137.569 31.029 142.925 32.618 A 85.125 85.125 0 0 0 144.727 33.131 A 113.005 113.005 0 0 1 150.128 34.741 Q 155.799 36.598 159.229 38.551 Q 164.16 41.358 166.65 45.264 A 15.789 15.789 0 0 1 168.944 51.611 A 20.453 20.453 0 0 1 169.141 54.493 Q 169.141 62.613 162.865 67.629 A 20.749 20.749 0 0 1 162.427 67.969 Q 155.713 73.048 144.727 73.048 A 36.673 36.673 0 0 1 135.603 71.945 A 32.039 32.039 0 0 1 130.933 70.362 A 24.627 24.627 0 0 1 125.868 67.487 A 19.001 19.001 0 0 1 121.411 62.843 Q 118.164 58.009 118.164 51.759 L 124.17 51.759 A 16.153 16.153 0 0 0 125.088 57.32 A 13.888 13.888 0 0 0 129.785 63.624 Q 134.825 67.524 142.853 67.924 A 37.665 37.665 0 0 0 144.727 67.969 A 30.614 30.614 0 0 0 150.215 67.507 Q 154.815 66.668 158.057 64.307 Q 163.086 60.645 163.086 54.591 A 13.544 13.544 0 0 0 162.453 50.351 A 10.983 10.983 0 0 0 158.936 45.24 A 18.413 18.413 0 0 0 156.056 43.331 Q 152.878 41.583 147.822 39.929 A 100.85 100.85 0 0 0 143.75 38.697 A 98.71 98.71 0 0 1 138.014 36.909 Q 131.287 34.566 127.637 31.934 A 18.436 18.436 0 0 1 123.128 27.449 A 15.61 15.61 0 0 1 120.41 18.36 A 15.659 15.659 0 0 1 125.55 6.427 A 20.331 20.331 0 0 1 127.124 5.103 Q 133.838 0.001 144.287 0.001 A 31.489 31.489 0 0 1 151.389 0.772 A 25.889 25.889 0 0 1 156.958 2.735 A 21.81 21.81 0 0 1 162.901 6.929 A 19.816 19.816 0 0 1 165.625 10.352 A 20.008 20.008 0 0 1 168.701 21.241 Z M 43.896 72.071 L 26.709 42.481 L 6.055 42.481 L 6.055 72.071 L 0 72.071 L 0 0.977 L 23.096 0.977 Q 34.473 0.977 40.869 6.495 A 18.024 18.024 0 0 1 46.914 17.52 A 26.457 26.457 0 0 1 47.266 21.925 Q 47.266 28.761 43.262 33.985 Q 39.258 39.21 32.52 41.212 L 50.293 71.436 L 50.293 72.071 L 43.896 72.071 Z M 6.055 6.104 L 6.055 37.354 L 24.463 37.354 Q 32.031 37.354 36.621 33.057 A 14.288 14.288 0 0 0 41.171 23.184 A 19.351 19.351 0 0 0 41.211 21.925 A 18.944 18.944 0 0 0 40.62 17.054 A 13.297 13.297 0 0 0 36.426 10.255 A 15.821 15.821 0 0 0 30.492 7.086 Q 28.127 6.38 25.29 6.182 A 32.856 32.856 0 0 0 22.998 6.104 L 6.055 6.104 Z" vector-effect="non-scaling-stroke"/></g></svg>