<svg width="168.263" height="73.049" viewBox="0 0 168.263 73.049" xmlns="http://www.w3.org/2000/svg">
    <g id="svgGroup" stroke-linecap="round" font-size="9pt" stroke-width="0.25mm">
        <path d="M 108.789 21.534 L 99.365 21.534 A 16.286 16.286 0 0 0 98.812 17.173 A 11.848 11.848 0 0 0 95.264 11.402 A 13.451 13.451 0 0 0 90.047 8.553 Q 87.994 7.938 85.529 7.775 A 27.804 27.804 0 0 0 83.691 7.716 Q 76.758 7.716 72.876 10.767 A 9.916 9.916 0 0 0 69.044 18.042 A 14.08 14.08 0 0 0 68.994 19.239 A 8.951 8.951 0 0 0 71.97 25.964 A 12.603 12.603 0 0 0 72.681 26.588 Q 75.79 29.121 82.581 31.289 A 78.891 78.891 0 0 0 85.229 32.081 Q 91.022 33.708 95.166 35.555 A 36.633 36.633 0 0 1 99.097 37.574 A 26.017 26.017 0 0 1 102.859 40.286 Q 104.971 42.135 106.329 44.275 A 16.107 16.107 0 0 1 106.519 44.581 A 16.649 16.649 0 0 1 108.7 50.756 A 21.644 21.644 0 0 1 108.936 54.005 Q 108.936 62.647 102.197 67.848 Q 95.459 73.048 84.18 73.048 Q 76.855 73.048 70.508 70.24 A 26.476 26.476 0 0 1 65.195 67.152 A 20.817 20.817 0 0 1 60.718 62.55 A 18.768 18.768 0 0 1 57.275 51.466 L 66.699 51.466 A 14.01 14.01 0 0 0 67.47 56.213 A 11.929 11.929 0 0 0 71.46 61.646 A 16.542 16.542 0 0 0 77.421 64.561 Q 80.449 65.382 84.18 65.382 A 29.197 29.197 0 0 0 88.48 65.086 Q 92.838 64.436 95.557 62.354 A 9.653 9.653 0 0 0 99.45 55.374 A 12.794 12.794 0 0 0 99.512 54.102 A 11.931 11.931 0 0 0 99.039 50.653 A 9.062 9.062 0 0 0 95.85 46.021 A 17.328 17.328 0 0 0 93.36 44.443 Q 90.576 42.957 86.158 41.491 A 97.523 97.523 0 0 0 82.568 40.382 A 76.133 76.133 0 0 1 75.986 38.183 Q 68.877 35.415 65.015 31.861 A 16.667 16.667 0 0 1 60.536 25.327 A 17.047 17.047 0 0 1 59.521 19.386 Q 59.521 10.987 66.235 5.494 A 23.562 23.562 0 0 1 76.129 0.79 A 34.301 34.301 0 0 1 83.691 0.001 A 32.365 32.365 0 0 1 91.026 0.8 A 26.353 26.353 0 0 1 96.753 2.833 A 22.784 22.784 0 0 1 102.654 6.953 A 20.38 20.38 0 0 1 105.64 10.645 A 19.977 19.977 0 0 1 108.789 21.534 Z M 168.115 21.534 L 158.691 21.534 A 16.286 16.286 0 0 0 158.138 17.173 A 11.848 11.848 0 0 0 154.59 11.402 A 13.451 13.451 0 0 0 149.373 8.553 Q 147.32 7.938 144.855 7.775 A 27.804 27.804 0 0 0 143.018 7.716 Q 136.084 7.716 132.202 10.767 A 9.916 9.916 0 0 0 128.37 18.042 A 14.08 14.08 0 0 0 128.32 19.239 A 8.951 8.951 0 0 0 131.296 25.964 A 12.603 12.603 0 0 0 132.007 26.588 Q 135.116 29.121 141.908 31.289 A 78.891 78.891 0 0 0 144.556 32.081 Q 150.348 33.708 154.492 35.555 A 36.633 36.633 0 0 1 158.423 37.574 A 26.017 26.017 0 0 1 162.185 40.286 Q 164.297 42.135 165.655 44.275 A 16.107 16.107 0 0 1 165.845 44.581 A 16.649 16.649 0 0 1 168.026 50.756 A 21.644 21.644 0 0 1 168.262 54.005 Q 168.262 62.647 161.523 67.848 Q 154.785 73.048 143.506 73.048 Q 136.182 73.048 129.834 70.24 A 26.476 26.476 0 0 1 124.521 67.152 A 20.817 20.817 0 0 1 120.044 62.55 A 18.768 18.768 0 0 1 116.602 51.466 L 126.025 51.466 A 14.01 14.01 0 0 0 126.796 56.213 A 11.929 11.929 0 0 0 130.786 61.646 A 16.542 16.542 0 0 0 136.747 64.561 Q 139.775 65.382 143.506 65.382 A 29.197 29.197 0 0 0 147.806 65.086 Q 152.164 64.436 154.883 62.354 A 9.653 9.653 0 0 0 158.776 55.374 A 12.794 12.794 0 0 0 158.838 54.102 A 11.931 11.931 0 0 0 158.365 50.653 A 9.062 9.062 0 0 0 155.176 46.021 A 17.328 17.328 0 0 0 152.686 44.443 Q 149.903 42.957 145.484 41.491 A 97.523 97.523 0 0 0 141.895 40.382 A 76.133 76.133 0 0 1 135.312 38.183 Q 128.203 35.415 124.341 31.861 A 16.667 16.667 0 0 1 119.862 25.327 A 17.047 17.047 0 0 1 118.848 19.386 Q 118.848 10.987 125.562 5.494 A 23.562 23.562 0 0 1 135.455 0.79 A 34.301 34.301 0 0 1 143.018 0.001 A 32.365 32.365 0 0 1 150.352 0.8 A 26.353 26.353 0 0 1 156.079 2.833 A 22.784 22.784 0 0 1 161.98 6.953 A 20.38 20.38 0 0 1 164.966 10.645 A 19.977 19.977 0 0 1 168.115 21.534 Z M 41.553 72.071 L 26.123 43.311 L 9.424 43.311 L 9.424 72.071 L 0 72.071 L 0 0.977 L 23.535 0.977 A 42.321 42.321 0 0 1 30.662 1.539 Q 34.467 2.19 37.506 3.596 A 19.874 19.874 0 0 1 42.017 6.446 A 17.646 17.646 0 0 1 47.855 16.32 A 27.252 27.252 0 0 1 48.486 22.364 A 20.706 20.706 0 0 1 47.473 28.938 A 18.222 18.222 0 0 1 44.897 33.936 A 20.539 20.539 0 0 1 37.576 40.122 A 26.027 26.027 0 0 1 34.912 41.309 L 51.611 71.485 L 51.611 72.071 L 41.553 72.071 Z M 9.424 8.692 L 9.424 35.645 L 23.828 35.645 A 21.848 21.848 0 0 0 28.455 35.184 Q 31.447 34.535 33.72 32.977 A 13.041 13.041 0 0 0 34.937 32.032 A 11.876 11.876 0 0 0 38.998 23.84 A 16.513 16.513 0 0 0 39.062 22.364 Q 39.063 16.337 35.776 12.881 A 11.111 11.111 0 0 0 35.132 12.257 A 12.799 12.799 0 0 0 30.505 9.664 Q 28.603 9.043 26.301 8.819 A 27.89 27.89 0 0 0 23.779 8.692 L 9.424 8.692 Z" vector-effect="non-scaling-stroke"/>
    </g>
</svg>