<svg xmlns="http://www.w3.org/2000/svg" xmlns:xlink="http://www.w3.org/1999/xlink"><defs><style>
    .sprite-symbol-usage {display: none;}
    .sprite-symbol-usage:target {display: inline;}
  </style><symbol viewBox="0 0 10 19" id="facebook"><path d="m9.345 10.688.519-3.439H6.621V5.018A1.7 1.7 0 0 1 8.526 3.16H10V.232A17.673 17.673 0 0 0 7.383 0c-2.67 0-4.415 1.647-4.415 4.628v2.621H0v3.439h2.968V19h3.653v-8.312Z" /></symbol><symbol viewBox="0 0 136 45" id="footer_logo"><path d="M90.527 23a9.446 9.446 0 0 1-5.366-1.656 9.349 9.349 0 0 1-3.414-4.251 9.237 9.237 0 0 1-.486-1.645 9.431 9.431 0 0 1-.174-1.791 9.3 9.3 0 0 1 .166-1.742 9.436 9.436 0 1 1 18.539 3.533H85.44a5.3 5.3 0 0 0 .954 1.645 5.43 5.43 0 0 0 8.267 0h4.646a9.331 9.331 0 0 1-3.413 4.251A9.448 9.448 0 0 1 90.527 23Zm0-14.688a5.4 5.4 0 0 0-5.1 3.6h10.204a5.4 5.4 0 0 0-5.104-3.6ZM51.786 23a9.444 9.444 0 0 1-8.78-5.907 9.341 9.341 0 0 1 8.78-12.78 9.342 9.342 0 0 1 9.266 11.135H46.7a5.289 5.289 0 0 0 .953 1.645 5.432 5.432 0 0 0 8.269 0h4.645a9.343 9.343 0 0 1-3.413 4.251A9.448 9.448 0 0 1 51.786 23Zm0-14.688a5.4 5.4 0 0 0-5.1 3.6H56.89a5.4 5.4 0 0 0-5.104-3.6ZM9.439 23a9.444 9.444 0 0 1-8.78-5.907 9.142 9.142 0 0 1-.484-1.645 9.286 9.286 0 0 1-.01-3.533 9.459 9.459 0 0 1 18.549 0 9.334 9.334 0 0 1-.01 3.533H4.352a5.289 5.289 0 0 0 .948 1.645 5.431 5.431 0 0 0 8.268 0h4.646a9.346 9.346 0 0 1-3.414 4.251A9.446 9.446 0 0 1 9.439 23Zm0-14.688a5.4 5.4 0 0 0-5.1 3.6h10.204a5.4 5.4 0 0 0-5.104-3.6Zm61.9 14.665h-4.92V4.361H71.1v3.773h.07a5.947 5.947 0 0 1 .93-1.526 6.127 6.127 0 0 1 1.351-1.2 6.664 6.664 0 0 1 1.628-.772 5.962 5.962 0 0 1 1.8-.274 3.885 3.885 0 0 1 1.074.171V9.06a10.06 10.06 0 0 0-.832-.121 9.19 9.19 0 0 0-.935-.051 5.306 5.306 0 0 0-2.288.446 3.981 3.981 0 0 0-1.498 1.218 4.869 4.869 0 0 0-.814 1.8 9.793 9.793 0 0 0-.242 2.229v8.394Zm-38.1 0h-5.471L21.635 4.439H26.8L30.581 17.1h.07L34.42 4.439h4.886l-6.063 18.537Zm99.3-.086a14.5 14.5 0 0 1-2.166-.155 5.158 5.158 0 0 1-1.8-.6 3.2 3.2 0 0 1-1.23-1.269 4.515 4.515 0 0 1-.45-2.162V7.619h-2.981V4.361h2.988V.834h4.92v3.527h3.6v3.258h-3.6v9.406a2.382 2.382 0 0 0 .415 1.646 2.436 2.436 0 0 0 1.663.412c.272 0 .541-.012.8-.034a6.863 6.863 0 0 0 .727-.1v3.773a11.84 11.84 0 0 1-1.385.138c-.518.019-1.02.031-1.495.031Zm-19.878 0a15.094 15.094 0 0 1-3.049-.309 8.135 8.135 0 0 1-2.651-1.03 5.631 5.631 0 0 1-2.72-4.87h4.678a2.657 2.657 0 0 0 .329 1.354 2.839 2.839 0 0 0 .849.926 3.688 3.688 0 0 0 1.2.532 5.7 5.7 0 0 0 1.4.171 5.278 5.278 0 0 0 1.092-.12 3.782 3.782 0 0 0 1.039-.377 2.379 2.379 0 0 0 .779-.686 1.8 1.8 0 0 0 .312-1.081c0-.728-.5-1.281-1.473-1.646a29.9 29.9 0 0 0-4.1-1.1 24.49 24.49 0 0 1-2.1-.565 7.185 7.185 0 0 1-1.819-.859 4.188 4.188 0 0 1-1.282-1.337 3.771 3.771 0 0 1-.485-1.972 5.312 5.312 0 0 1 .676-2.812 4.982 4.982 0 0 1 1.784-1.733 7.922 7.922 0 0 1 2.495-.892 15.64 15.64 0 0 1 2.84-.257 14.5 14.5 0 0 1 2.824.274 7.583 7.583 0 0 1 2.443.926 5.639 5.639 0 0 1 1.786 1.732 5.811 5.811 0 0 1 .848 2.727h-4.676a2.132 2.132 0 0 0-1.073-1.9 4.982 4.982 0 0 0-2.288-.5 8.4 8.4 0 0 0-.9.052 3.023 3.023 0 0 0-.884.222 1.822 1.822 0 0 0-.676.5 1.312 1.312 0 0 0-.277.876 1.331 1.331 0 0 0 .486 1.062 3.752 3.752 0 0 0 1.264.669 15.973 15.973 0 0 0 1.784.464c.625.128 1.294.274 2.044.446a21.374 21.374 0 0 1 2.1.582 6.981 6.981 0 0 1 1.819.909 4.454 4.454 0 0 1 1.282 1.406 4.117 4.117 0 0 1 .486 2.075 5.374 5.374 0 0 1-2.565 4.837 7.641 7.641 0 0 1-2.615 1.011 15.48 15.48 0 0 1-3 .293Zm21.957-20.23a1.512 1.512 0 0 1-.525-.093 1.333 1.333 0 0 1-.44-.267 1.287 1.287 0 0 1-.418-.973 1.313 1.313 0 0 1 .113-.549 1.313 1.313 0 0 1 .3-.418 1.4 1.4 0 0 1 .44-.267 1.485 1.485 0 0 1 .53-.094 1.5 1.5 0 0 1 .524.094 1.376 1.376 0 0 1 .44.267 1.278 1.278 0 0 1 .418.968 1.292 1.292 0 0 1-.113.553 1.278 1.278 0 0 1-.3.42 1.315 1.315 0 0 1-.44.267 1.529 1.529 0 0 1-.529.092Zm0-2.377a1.011 1.011 0 0 0-.4.079.982.982 0 0 0-.323.217 1.057 1.057 0 0 0-.215.329 1.086 1.086 0 0 0-.079.419 1.071 1.071 0 0 0 .294.754 1.026 1.026 0 0 0 1.115.219.97.97 0 0 0 .322-.219 1.073 1.073 0 0 0 .3-.754 1.051 1.051 0 0 0-.3-.748.97.97 0 0 0-.322-.217 1.012 1.012 0 0 0-.392-.079Zm-.239 1.79h-.3V.581h.569a.811.811 0 0 1 .437.1.377.377 0 0 1 .152.342.44.44 0 0 1-.031.176.3.3 0 0 1-.085.119.388.388 0 0 1-.121.072.691.691 0 0 1-.155.031l.4.651h-.312l-.367-.638h-.188v.638Zm0-1.262V1.2h.267a.54.54 0 0 0 .212-.036c.055-.022.083-.079.083-.17a.147.147 0 0 0-.03-.1.186.186 0 0 0-.074-.056.322.322 0 0 0-.1-.026.738.738 0 0 0-.105-.007ZM100.619 45c-1.647 0-2.631-.809-2.631-2.165a1.728 1.728 0 0 1 .658-1.383 1.161 1.161 0 0 1-.507-1.069 1.278 1.278 0 0 1 .784-1.174 2.321 2.321 0 0 1-.481-1.448 2.112 2.112 0 0 1 2.164-2.2 2.09 2.09 0 0 1 1.1.3l1.138-.666.366.692-.885.508a2.112 2.112 0 0 1 .443 1.369 2.09 2.09 0 0 1-2.164 2.2 2.223 2.223 0 0 1-1.189-.312.733.733 0 0 0-.518.73c0 .565.548.626.784.626h1.645c1.232 0 1.91.611 1.91 1.721.002 1.465-.928 2.271-2.617 2.271Zm-1.3-3.326a1.309 1.309 0 0 0-.569 1.188c0 .9.682 1.408 1.871 1.408 1.164 0 1.859-.536 1.859-1.435 0-.766-.394-1.122-1.24-1.122h-1.3a4.434 4.434 0 0 1-.623-.04Zm1.29-5.413a1.378 1.378 0 0 0-1.379 1.5 1.384 1.384 0 1 0 2.758 0 1.378 1.378 0 0 0-1.381-1.5Zm26.006 6.079a3.154 3.154 0 0 1-2.985-3.392 3.01 3.01 0 1 1 5.971 0 3.154 3.154 0 0 1-2.988 3.391Zm0-6.026a2.369 2.369 0 0 0-2.163 2.634 2.205 2.205 0 1 0 4.325 0 2.369 2.369 0 0 0-2.164-2.635Zm-5.892 6.026c-1.028 0-1.594-.7-1.594-1.97v-3.953H118v-.757h1.126v-2.125l.785-.535v2.66h1.721v.757h-1.721V40.5c0 .7.323 1.084.911 1.084a1.514 1.514 0 0 0 .8-.21l.214.732a2.363 2.363 0 0 1-1.115.233Zm-7.632 0a1.825 1.825 0 0 1-1.985-2c0-1.388 1.042-2.153 2.934-2.153h1.06V37.9c0-1.041-.508-1.591-1.468-1.591a1.516 1.516 0 0 0-1.517 1.226l-.76-.183a2.291 2.291 0 0 1 4.529.522v4.361h-.595l-.189-1.018a2.154 2.154 0 0 1-2.011 1.122Zm.974-3.392c-1.4 0-2.138.483-2.138 1.4a1.128 1.128 0 0 0 1.239 1.239c.932 0 1.936-.747 1.936-2.387v-.253Zm-21.122 3.391c-1.668 0-2.833-1.395-2.833-3.392s1.165-3.391 2.833-3.391a2.762 2.762 0 0 1 2.8 3.026v.365h-4.81a3.149 3.149 0 0 0 .547 1.918 1.775 1.775 0 0 0 1.463.717 1.96 1.96 0 0 0 1.957-1.408l.7.352a2.722 2.722 0 0 1-2.657 1.813Zm0-6.026a2.045 2.045 0 0 0-1.96 1.877h3.947a1.9 1.9 0 0 0-1.987-1.877Zm-5.778 6.026c-1.028 0-1.594-.7-1.594-1.97v-3.952h-1.125v-.757h1.125v-2.125l.785-.535v2.66h1.72v.757h-1.72V40.5c0 .7.323 1.084.911 1.084a1.512 1.512 0 0 0 .8-.21l.214.732a2.358 2.358 0 0 1-1.116.233Zm-31.908 0a3.154 3.154 0 0 1-2.985-3.392 3.01 3.01 0 1 1 5.971 0 3.154 3.154 0 0 1-2.986 3.392Zm0-6.026a2.369 2.369 0 0 0-2.163 2.634 2.205 2.205 0 1 0 4.325 0 2.369 2.369 0 0 0-2.162-2.634ZM44.96 42.339c-1.027 0-1.593-.7-1.593-1.97v-3.952h-1.126v-.757h1.126v-2.125L44.15 33v2.66h1.72v.757h-1.72V40.5c0 .7.323 1.084.911 1.084a1.517 1.517 0 0 0 .8-.21l.214.732a2.365 2.365 0 0 1-1.115.233Zm-7.631 0a1.825 1.825 0 0 1-1.986-2c0-1.388 1.042-2.153 2.934-2.153h1.062V37.9c0-1.041-.507-1.591-1.467-1.591a1.516 1.516 0 0 0-1.517 1.226l-.76-.183a2.292 2.292 0 0 1 4.53.522v4.361h-.6l-.19-1.018a2.149 2.149 0 0 1-2.007 1.122Zm.971-3.392c-1.4 0-2.137.483-2.137 1.4a1.128 1.128 0 0 0 1.237 1.235c.932 0 1.934-.747 1.934-2.387v-.248Zm-14.64 3.392a3.154 3.154 0 0 1-2.985-3.392 3.153 3.153 0 0 1 2.985-3.391 3.153 3.153 0 0 1 2.984 3.391 3.154 3.154 0 0 1-2.984 3.392Zm0-6.026a2.369 2.369 0 0 0-2.16 2.634 2.37 2.37 0 0 0 2.16 2.635 2.37 2.37 0 0 0 2.163-2.635 2.369 2.369 0 0 0-2.163-2.634Zm54.349 5.923h-.784V35.66h.784v1.37a2.521 2.521 0 0 1 2.191-1.474c1.246 0 1.961.789 1.961 2.165v4.513h-.785v-4.408c0-1-.438-1.513-1.3-1.513-1.214 0-2.062 1.25-2.062 3.039v2.883Zm-16.405 0h-.785V35.66h.781v1.37a2.519 2.519 0 0 1 2.188-1.474c1.246 0 1.961.789 1.961 2.165v4.513h-.785v-4.408c0-1-.438-1.513-1.3-1.513-1.214 0-2.062 1.25-2.062 3.039v2.883Zm-47.8 0h-.784V35.66h.78v1.37a2.519 2.519 0 0 1 2.19-1.474c1.246 0 1.961.789 1.961 2.165v4.513h-.785v-4.408c0-1-.438-1.513-1.3-1.513-1.214 0-2.062 1.25-2.062 3.039v2.883Zm-7.9 0h-.787V35.66H5.9v1.37a2.518 2.518 0 0 1 2.188-1.474c1.246 0 1.961.789 1.961 2.165v4.513h-.783v-4.408c0-1-.438-1.513-1.3-1.513-1.217 0-2.066 1.25-2.066 3.039v2.883Zm43.547 0h-.783V35.66h.783v6.574Zm24.7 0h-.783V35.66h.783v6.574Zm-72.108 0h-.79V35.66h.784v6.574Zm131.13 0h-.784V35.66h.784v1.175a1.99 1.99 0 0 1 1.872-1.279 2.167 2.167 0 0 1 .961.222l-.177.77a1.8 1.8 0 0 0-.9-.235c-1.068 0-1.759 1.326-1.759 3.379v2.542Zm-26.7 0h-.784V35.66h.784v1.175a1.99 1.99 0 0 1 1.872-1.279 2.166 2.166 0 0 1 .961.222l-.176.77a1.81 1.81 0 0 0-.9-.235c-1.068 0-1.758 1.326-1.758 3.379v2.542Zm-75.051 0h-.86L28.4 35.66h.823l1.758 5.491 1.758-5.491h.822l-2.15 6.574Zm42.342-7.8a.641.641 0 0 1-.656-.666.645.645 0 1 1 1.29 0 .64.64 0 0 1-.645.664Zm-24.7 0a.64.64 0 0 1-.653-.666.645.645 0 1 1 1.29 0 .641.641 0 0 1-.646.664Zm-47.411 0A.64.64 0 0 1 1 33.77a.641.641 0 0 1 .644-.67.641.641 0 0 1 .646.67.641.641 0 0 1-.646.664Z" fill="#fff" /></symbol><symbol viewBox="0 0 7 15" id="light"><path d="M6.978 6.958a.213.213 0 0 0-.184-.114l-2.975-.072L6.311.275a.2.2 0 0 0-.1-.254.215.215 0 0 0-.277.079L.033 9.169a.2.2 0 0 0 0 .215.213.213 0 0 0 .2.1l2.933-.227-2.39 5.46a.2.2 0 0 0 .091.258.218.218 0 0 0 .1.027.213.213 0 0 0 .171-.085l5.821-7.748a.2.2 0 0 0 .019-.211" /></symbol><symbol viewBox="0 0 16 16" id="play"><path d="M8 1c3.9 0 7 3.1 7 7s-3.1 7-7 7-7-3.1-7-7 3.1-7 7-7zm0-1C3.6 0 0 3.6 0 8s3.6 8 8 8 8-3.6 8-8-3.6-8-8-8z" /><path d="M6 4v8l6-4z" /></symbol><symbol viewBox="0 0 169.142 73.048" id="rss"><path d="M109.473 21.241h-6.055a17.229 17.229 0 0 0-.822-5.44 14.217 14.217 0 0 0-4.158-6.254 16.896 16.896 0 0 0-7.336-3.744q-2.761-.675-6.043-.675a29.73 29.73 0 0 0-5.214.43q-4.602.82-7.775 3.207-4.823 3.63-4.834 9.471a14.126 14.126 0 0 0 0 .026 10.615 10.615 0 0 0 3.447 8.067 13.486 13.486 0 0 0 .899.771 21.477 21.477 0 0 0 3.226 2.058q3.532 1.871 8.888 3.46a85.125 85.125 0 0 0 1.802.513 113.005 113.005 0 0 1 5.401 1.61q5.672 1.857 9.101 3.81 4.932 2.807 7.422 6.713a15.789 15.789 0 0 1 2.293 6.347 20.453 20.453 0 0 1 .197 2.882q0 8.12-6.275 13.136a20.749 20.749 0 0 1-.439.34q-6.714 5.079-17.7 5.079a36.673 36.673 0 0 1-9.123-1.103 32.039 32.039 0 0 1-4.671-1.583 24.627 24.627 0 0 1-5.065-2.875 19.001 19.001 0 0 1-4.456-4.644q-3.247-4.834-3.247-11.084h6.005a16.153 16.153 0 0 0 .918 5.561 13.888 13.888 0 0 0 4.698 6.304q5.039 3.9 13.067 4.3a37.665 37.665 0 0 0 1.874.045 30.614 30.614 0 0 0 5.488-.462q4.601-.839 7.842-3.2 5.029-3.662 5.029-9.716a13.544 13.544 0 0 0-.633-4.24 10.983 10.983 0 0 0-3.517-5.111 18.413 18.413 0 0 0-2.879-1.909q-3.179-1.748-8.235-3.402a100.85 100.85 0 0 0-4.072-1.232 98.71 98.71 0 0 1-5.736-1.788q-6.727-2.343-10.377-4.975a18.436 18.436 0 0 1-4.508-4.485 15.61 15.61 0 0 1-2.718-9.089 15.659 15.659 0 0 1 5.14-11.933 20.331 20.331 0 0 1 1.574-1.324Q74.609.001 85.059.001a31.489 31.489 0 0 1 7.102.771 25.889 25.889 0 0 1 5.568 1.963 21.81 21.81 0 0 1 5.944 4.194 19.816 19.816 0 0 1 2.723 3.423 20.008 20.008 0 0 1 3.077 10.889Zm59.228 0h-6.055a17.229 17.229 0 0 0-.821-5.44 14.217 14.217 0 0 0-4.159-6.254 16.896 16.896 0 0 0-7.336-3.744q-2.76-.675-6.043-.675a29.73 29.73 0 0 0-5.214.43q-4.602.82-7.774 3.207-4.823 3.63-4.834 9.471a14.126 14.126 0 0 0 0 .026 10.615 10.615 0 0 0 3.447 8.067 13.486 13.486 0 0 0 .899.771 21.477 21.477 0 0 0 3.226 2.058q3.532 1.871 8.888 3.46a85.125 85.125 0 0 0 1.802.513 113.005 113.005 0 0 1 5.401 1.61q5.671 1.857 9.101 3.81 4.931 2.807 7.421 6.713a15.789 15.789 0 0 1 2.294 6.347 20.453 20.453 0 0 1 .197 2.882q0 8.12-6.276 13.136a20.749 20.749 0 0 1-.438.34q-6.714 5.079-17.7 5.079a36.673 36.673 0 0 1-9.124-1.103 32.039 32.039 0 0 1-4.67-1.583 24.627 24.627 0 0 1-5.065-2.875 19.001 19.001 0 0 1-4.457-4.644q-3.247-4.834-3.247-11.084h6.006a16.153 16.153 0 0 0 .918 5.561 13.888 13.888 0 0 0 4.697 6.304q5.04 3.9 13.068 4.3a37.665 37.665 0 0 0 1.874.045 30.614 30.614 0 0 0 5.488-.462q4.6-.839 7.842-3.2 5.029-3.662 5.029-9.716a13.544 13.544 0 0 0-.633-4.24 10.983 10.983 0 0 0-3.517-5.111 18.413 18.413 0 0 0-2.88-1.909q-3.178-1.748-8.234-3.402a100.85 100.85 0 0 0-4.072-1.232 98.71 98.71 0 0 1-5.736-1.788q-6.727-2.343-10.377-4.975a18.436 18.436 0 0 1-4.509-4.485 15.61 15.61 0 0 1-2.718-9.089 15.659 15.659 0 0 1 5.14-11.933 20.331 20.331 0 0 1 1.574-1.324Q133.838.001 144.287.001a31.489 31.489 0 0 1 7.102.771 25.889 25.889 0 0 1 5.569 1.963 21.81 21.81 0 0 1 5.943 4.194 19.816 19.816 0 0 1 2.724 3.423 20.008 20.008 0 0 1 3.076 10.889ZM43.896 72.071l-17.187-29.59H6.055v29.59H0V.977h23.096q11.377 0 17.773 5.518a18.024 18.024 0 0 1 6.045 11.025 26.457 26.457 0 0 1 .352 4.405q0 6.836-4.004 12.06-4.004 5.225-10.742 7.227l17.773 30.224v.635h-6.397ZM6.055 6.104v31.25h18.408q7.568 0 12.158-4.297a14.288 14.288 0 0 0 4.55-9.873 19.351 19.351 0 0 0 .04-1.259 18.944 18.944 0 0 0-.591-4.871 13.297 13.297 0 0 0-4.194-6.799 15.821 15.821 0 0 0-5.934-3.169q-2.365-.706-5.202-.904a32.856 32.856 0 0 0-2.292-.078H6.055Z" vector-effect="non-scaling-stroke" font-size="12" stroke-width=".945" style="stroke-width:.25mm" /></symbol><symbol viewBox="0 0 168.263 73.049" id="rss_footer"><path d="M108.789 21.534h-9.424a16.286 16.286 0 0 0-.553-4.361 11.848 11.848 0 0 0-3.548-5.771 13.451 13.451 0 0 0-5.217-2.849q-2.053-.615-4.518-.778a27.804 27.804 0 0 0-1.838-.059q-6.933 0-10.815 3.051a9.916 9.916 0 0 0-3.832 7.275 14.08 14.08 0 0 0-.05 1.197 8.951 8.951 0 0 0 2.976 6.725 12.603 12.603 0 0 0 .711.624q3.109 2.533 9.9 4.701a78.891 78.891 0 0 0 2.648.792q5.793 1.627 9.937 3.474a36.633 36.633 0 0 1 3.931 2.019 26.017 26.017 0 0 1 3.762 2.712q2.112 1.849 3.47 3.989a16.107 16.107 0 0 1 .19.306 16.649 16.649 0 0 1 2.181 6.175 21.644 21.644 0 0 1 .236 3.249q0 8.642-6.739 13.843-6.738 5.2-18.017 5.2-7.325 0-13.672-2.808a26.476 26.476 0 0 1-5.313-3.088 20.817 20.817 0 0 1-4.477-4.602 18.768 18.768 0 0 1-3.443-11.084h9.424a14.01 14.01 0 0 0 .771 4.747 11.929 11.929 0 0 0 3.99 5.433 16.542 16.542 0 0 0 5.961 2.915q3.028.821 6.759.821a29.197 29.197 0 0 0 4.3-.296q4.358-.65 7.077-2.732a9.653 9.653 0 0 0 3.893-6.98 12.794 12.794 0 0 0 .062-1.272 11.931 11.931 0 0 0-.473-3.449 9.062 9.062 0 0 0-3.189-4.632 17.328 17.328 0 0 0-2.49-1.578q-2.784-1.486-7.202-2.952a97.523 97.523 0 0 0-3.59-1.109 76.133 76.133 0 0 1-6.582-2.199q-7.109-2.768-10.971-6.322a16.667 16.667 0 0 1-4.479-6.534 17.047 17.047 0 0 1-1.015-5.941q0-8.399 6.714-13.892A23.562 23.562 0 0 1 76.129.79a34.301 34.301 0 0 1 7.562-.789A32.365 32.365 0 0 1 91.026.8a26.353 26.353 0 0 1 5.727 2.033 22.784 22.784 0 0 1 5.901 4.12 20.38 20.38 0 0 1 2.986 3.692 19.977 19.977 0 0 1 3.149 10.889Zm59.326 0h-9.424a16.286 16.286 0 0 0-.553-4.361 11.848 11.848 0 0 0-3.548-5.771 13.451 13.451 0 0 0-5.217-2.849q-2.053-.615-4.518-.778a27.804 27.804 0 0 0-1.837-.059q-6.934 0-10.816 3.051a9.916 9.916 0 0 0-3.832 7.275 14.08 14.08 0 0 0-.05 1.197 8.951 8.951 0 0 0 2.976 6.725 12.603 12.603 0 0 0 .711.624q3.109 2.533 9.901 4.701a78.891 78.891 0 0 0 2.648.792q5.792 1.627 9.936 3.474a36.633 36.633 0 0 1 3.931 2.019 26.017 26.017 0 0 1 3.762 2.712q2.112 1.849 3.47 3.989a16.107 16.107 0 0 1 .19.306 16.649 16.649 0 0 1 2.181 6.175 21.644 21.644 0 0 1 .236 3.249q0 8.642-6.739 13.843-6.738 5.2-18.017 5.2-7.324 0-13.672-2.808a26.476 26.476 0 0 1-5.313-3.088 20.817 20.817 0 0 1-4.477-4.602 18.768 18.768 0 0 1-3.442-11.084h9.423a14.01 14.01 0 0 0 .771 4.747 11.929 11.929 0 0 0 3.99 5.433 16.542 16.542 0 0 0 5.961 2.915q3.028.821 6.759.821a29.197 29.197 0 0 0 4.3-.296q4.358-.65 7.077-2.732a9.653 9.653 0 0 0 3.893-6.98 12.794 12.794 0 0 0 .062-1.272 11.931 11.931 0 0 0-.473-3.449 9.062 9.062 0 0 0-3.189-4.632 17.328 17.328 0 0 0-2.49-1.578q-2.783-1.486-7.202-2.952a97.523 97.523 0 0 0-3.589-1.109 76.133 76.133 0 0 1-6.583-2.199q-7.109-2.768-10.971-6.322a16.667 16.667 0 0 1-4.479-6.534 17.047 17.047 0 0 1-1.014-5.941q0-8.399 6.714-13.892A23.562 23.562 0 0 1 135.455.79a34.301 34.301 0 0 1 7.563-.789 32.365 32.365 0 0 1 7.334.799 26.353 26.353 0 0 1 5.727 2.033 22.784 22.784 0 0 1 5.901 4.12 20.38 20.38 0 0 1 2.986 3.692 19.977 19.977 0 0 1 3.149 10.889ZM41.553 72.071l-15.43-28.76H9.424v28.76H0V.977h23.535a42.321 42.321 0 0 1 7.127.562q3.805.651 6.844 2.057a19.874 19.874 0 0 1 4.511 2.85 17.646 17.646 0 0 1 5.838 9.874 27.252 27.252 0 0 1 .631 6.044 20.706 20.706 0 0 1-1.013 6.574 18.222 18.222 0 0 1-2.576 4.998 20.539 20.539 0 0 1-7.321 6.186 26.027 26.027 0 0 1-2.664 1.187l16.699 30.176v.586H41.553ZM9.424 8.692v26.953h14.404a21.848 21.848 0 0 0 4.627-.461q2.992-.649 5.265-2.207a13.041 13.041 0 0 0 1.217-.945 11.876 11.876 0 0 0 4.061-8.192 16.513 16.513 0 0 0 .064-1.476q.001-6.027-3.286-9.483a11.111 11.111 0 0 0-.644-.624 12.799 12.799 0 0 0-4.627-2.593q-1.902-.621-4.204-.845a27.89 27.89 0 0 0-2.522-.127H9.424Z" vector-effect="non-scaling-stroke" stroke-linecap="round" font-size="12" stroke-width=".945" /></symbol><symbol viewBox="0 0 17.49 17.491" id="search"><path d="M6.5 0A6.507 6.507 0 0 0 0 6.5 6.507 6.507 0 0 0 6.5 13a6.5 6.5 0 0 0 4.226-1.566l.274.274v.792l5 4.991L17.49 16l-4.988-5h-.794l-.276-.275A6.494 6.494 0 0 0 13 6.5 6.507 6.507 0 0 0 6.5 0Zm0 11A4.505 4.505 0 0 1 2 6.5 4.505 4.505 0 0 1 6.5 2 4.505 4.505 0 0 1 11 6.5 4.505 4.505 0 0 1 6.5 11Z" /></symbol><symbol viewBox="0 0 20 16" id="twitter"><path d="M17.944 3.987c.013.175.013.35.013.525A11.491 11.491 0 0 1 6.294 16 11.712 11.712 0 0 1 0 14.188a8.608 8.608 0 0 0 .99.05 8.289 8.289 0 0 0 5.089-1.725 4.1 4.1 0 0 1-3.833-2.8 5.246 5.246 0 0 0 .774.062 4.4 4.4 0 0 0 1.08-.137A4.054 4.054 0 0 1 .812 5.675v-.05a4.176 4.176 0 0 0 1.853.512A4.019 4.019 0 0 1 .838 2.775 3.961 3.961 0 0 1 1.4.737a11.711 11.711 0 0 0 8.448 4.225 4.492 4.492 0 0 1-.1-.925A4.067 4.067 0 0 1 13.845 0a4.118 4.118 0 0 1 2.995 1.275A8.145 8.145 0 0 0 19.442.3a4.038 4.038 0 0 1-1.8 2.225A8.316 8.316 0 0 0 20 1.9a8.74 8.74 0 0 1-2.056 2.087Z" /></symbol><symbol viewBox="0 0 20 14" id="youtube"><path d="M2.186 13.581a2.471 2.471 0 0 1-1.768-1.743A26.152 26.152 0 0 1 0 7.014a26.144 26.144 0 0 1 .418-4.823A2.509 2.509 0 0 1 2.186.419C3.746 0 10 0 10 0s6.254 0 7.814.419a2.509 2.509 0 0 1 1.769 1.772A26.144 26.144 0 0 1 20 7.014a26.152 26.152 0 0 1-.418 4.824 2.471 2.471 0 0 1-1.769 1.743C16.254 14 10 14 10 14s-6.254 0-7.814-.419Z" /></symbol></defs><use id="facebook-usage" xlink:href="#facebook" class="sprite-symbol-usage" /><use id="footer_logo-usage" xlink:href="#footer_logo" class="sprite-symbol-usage" /><use id="light-usage" xlink:href="#light" class="sprite-symbol-usage" /><use id="play-usage" xlink:href="#play" class="sprite-symbol-usage" /><use id="rss-usage" xlink:href="#rss" class="sprite-symbol-usage" /><use id="rss_footer-usage" xlink:href="#rss_footer" class="sprite-symbol-usage" /><use id="search-usage" xlink:href="#search" class="sprite-symbol-usage" /><use id="twitter-usage" xlink:href="#twitter" class="sprite-symbol-usage" /><use id="youtube-usage" xlink:href="#youtube" class="sprite-symbol-usage" /></svg>